<?xml version="1.0" encoding="UTF-8"?> <svg xmlns="http://www.w3.org/2000/svg" width="845" height="958" viewBox="0 0 845 958" fill="none"><path d="M271.715 191.283C284.565 185.718 453.788 245.231 468.092 250.795C482.151 256.36 647.011 327.485 652.588 340.308C658.161 353.129 598.524 521.992 592.947 536.267C587.37 550.296 516.094 714.804 503.246 720.369C490.394 725.933 321.173 666.419 306.87 660.855C292.808 655.291 127.949 584.165 122.373 571.343C116.797 558.52 176.437 389.659 182.013 375.388C187.589 361.113 258.866 196.847 271.715 191.283Z" fill="url(#paint0_linear_193_2)"></path><path style="mix-blend-mode:multiply" d="M538.146 0.217979C566.002 -4.39388 685.409 65.5124 710.114 83.2315C734.82 100.951 839.94 191.004 844.783 218.918C849.384 246.832 779.63 366.496 761.947 391.254C744.268 416.015 654.406 521.36 626.554 526.212C598.698 530.826 479.291 460.917 454.586 443.199C429.88 425.482 324.761 335.428 319.917 307.514C315.315 279.6 385.07 159.934 402.753 135.175C420.432 110.417 510.294 5.07258 538.146 0.217979Z" fill="url(#paint1_linear_193_2)"></path><path style="mix-blend-mode:multiply" d="M440.575 957.968H220.287H0V737.114V516.263H220.287H440.575V737.114V957.968Z" fill="url(#paint2_linear_193_2)"></path><defs><linearGradient id="paint0_linear_193_2" x1="-121.31" y1="813.997" x2="1033.46" y2="-2.65123" gradientUnits="userSpaceOnUse"><stop stop-color="#FF1FBF"></stop><stop offset="0.48" stop-color="#00AEEF"></stop><stop offset="1" stop-color="#1FFFAD"></stop></linearGradient><linearGradient id="paint1_linear_193_2" x1="582.473" y1="1146.87" x2="582.473" y2="1142.26" gradientUnits="userSpaceOnUse"><stop stop-color="#FF1FBF"></stop><stop offset="0.48" stop-color="#30C4EE"></stop><stop offset="1" stop-color="#30C4EE"></stop></linearGradient><linearGradient id="paint2_linear_193_2" x1="106.27" y1="910.643" x2="886.351" y2="-270.658" gradientUnits="userSpaceOnUse"><stop stop-color="#005EAD"></stop><stop offset="0.47" stop-color="#00AEEF"></stop><stop offset="1" stop-color="#1FFFAD"></stop></linearGradient></defs></svg> 